<?xml version="1.0" standalone="no"?>
<!DOCTYPE svg PUBLIC "-//W3C//DTD SVG 20010904//EN"
 "http://www.w3.org/TR/2001/REC-SVG-20010904/DTD/svg10.dtd">
<svg version="1.0" xmlns="http://www.w3.org/2000/svg"
 width="1254.000000pt" height="1254.000000pt" viewBox="0 0 1254.000000 1254.000000"
 preserveAspectRatio="xMidYMid meet">

<g transform="translate(0.000000,1254.000000) scale(0.100000,-0.100000)"
fill="#0d1b5e" stroke="none">
<path d="M2718 9741 c-75 -24 -118 -52 -172 -112 -53 -59 -82 -116 -96 -188
-7 -36 -10 -935 -10 -2650 0 -2141 3 -2606 14 -2653 28 -121 117 -222 238
-271 l53 -22 2183 -3 2182 -2 0 -594 0 -593 23 -33 c39 -58 71 -75 140 -75
l62 0 349 261 349 262 226 -169 c124 -93 282 -211 351 -261 l125 -93 60 0 c47
0 67 5 93 23 70 50 67 22 70 679 l3 592 417 3 c413 3 418 4 477 27 83 33 183
133 216 216 l24 60 3 2629 c2 2873 6 2689 -54 2791 -37 64 -125 140 -192 167
l-57 23 -3510 2 c-3365 2 -3512 1 -3567 -16z m6053 -1344 c24 -13 57 -43 74
-66 24 -35 30 -52 30 -99 0 -70 -24 -115 -84 -157 l-43 -30 -2482 0 -2482 0
-43 28 c-127 84 -114 266 24 328 38 18 135 19 2501 19 l2461 0 44 -23z m-1550
-1302 c54 -38 82 -93 82 -156 -1 -68 -30 -118 -88 -154 l-48 -30 -1670 -3
c-1194 -1 -1681 1 -1710 9 -136 36 -178 220 -74 317 57 54 -29 51 1784 49
l1681 -2 43 -30z m1049 -1025 c46 -11 126 -41 178 -65 275 -131 479 -380 554
-681 32 -128 32 -342 -1 -468 -47 -180 -124 -324 -241 -449 -380 -407 -1024
-420 -1425 -30 -125 121 -221 288 -271 471 -25 90 -30 318 -9 427 79 422 422
753 845 816 88 13 275 2 370 -21z m-2489 -253 c24 -13 57 -43 74 -66 60 -85
32 -204 -62 -262 l-38 -24 -960 -3 c-726 -2 -971 0 -1004 9 -90 25 -151 119
-136 210 9 54 58 117 108 140 40 18 80 19 1008 19 l966 0 44 -23z"/>
</g>
</svg>
