<?xml version="1.0" standalone="no"?>
<!DOCTYPE svg PUBLIC "-//W3C//DTD SVG 20010904//EN"
 "http://www.w3.org/TR/2001/REC-SVG-20010904/DTD/svg10.dtd">
<svg version="1.0" xmlns="http://www.w3.org/2000/svg"
 width="1254.000000pt" height="1254.000000pt" viewBox="0 0 1254.000000 1254.000000"
 preserveAspectRatio="xMidYMid meet">

<g transform="translate(0.000000,1254.000000) scale(0.100000,-0.100000)"
fill="#0d1b5e" stroke="none">
<path d="M5755 10915 c-214 -39 -394 -134 -558 -294 -147 -143 -249 -317 -305
-518 l-27 -98 0 -2435 0 -2435 27 -100 c107 -387 406 -686 790 -788 l83 -22
1825 0 1825 0 90 28 c351 109 623 371 734 707 58 178 54 50 58 2035 3 1221 1
1856 -6 1930 -6 61 -20 144 -32 185 -25 90 -91 234 -149 321 -48 74 -1195
1221 -1300 1301 -80 61 -216 128 -335 165 l-90 28 -1280 2 c-1013 1 -1295 -1
-1350 -12z m2595 -682 c58 -29 127 -95 656 -625 521 -522 594 -599 610 -643
18 -48 19 -117 22 -1850 2 -1237 -1 -1822 -8 -1869 -22 -144 -111 -266 -239
-329 l-66 -32 -1724 -3 c-1929 -3 -1777 -8 -1893 71 -72 50 -135 134 -161 218
-17 52 -18 196 -18 2400 0 2605 -5 2389 69 2505 42 64 79 100 148 140 92 54
47 53 1339 51 l1200 -2 65 -32z"/>
<path d="M3568 8645 c-466 -75 -843 -429 -961 -903 l-21 -87 -4 -2335 c-2
-1727 0 -2360 8 -2430 63 -514 465 -910 975 -961 64 -6 759 -9 1920 -6 1998 3
1847 -1 2025 63 365 130 623 433 706 824 21 99 32 575 15 638 -15 53 -64 110
-116 133 -34 16 -67 19 -210 19 -184 0 -226 -10 -274 -61 -54 -57 -56 -66 -62
-349 -5 -241 -7 -270 -27 -320 -49 -123 -143 -218 -255 -257 -49 -17 -146 -18
-1882 -18 l-1830 0 -58 23 c-31 13 -79 41 -106 62 -52 41 -123 139 -143 198
-10 29 -13 512 -16 2361 -2 2569 -7 2386 61 2500 64 107 163 187 276 221 52
17 92 20 237 20 203 0 262 10 310 53 70 61 76 84 72 301 -3 192 -3 193 -31
233 -15 22 -46 50 -70 64 -40 23 -50 24 -247 26 -136 1 -235 -3 -292 -12z"/>
</g>
</svg>
