<?xml version="1.0" standalone="no"?>
<!DOCTYPE svg PUBLIC "-//W3C//DTD SVG 20010904//EN"
 "http://www.w3.org/TR/2001/REC-SVG-20010904/DTD/svg10.dtd">
<svg version="1.0" xmlns="http://www.w3.org/2000/svg"
 width="1254.000000pt" height="1254.000000pt" viewBox="0 0 1254.000000 1254.000000"
 preserveAspectRatio="xMidYMid meet">

<g transform="translate(0.000000,1254.000000) scale(0.100000,-0.100000)"
fill="#0d1b5e" stroke="none">
<path d="M6125 10770 c-304 -30 -578 -146 -815 -346 -232 -196 -399 -480 -472
-805 -20 -89 -23 -131 -23 -294 1 -207 9 -262 65 -440 139 -436 486 -789 917
-933 170 -58 237 -67 468 -67 228 0 261 5 436 61 430 138 778 490 918 926 51
161 62 232 68 423 4 152 2 198 -15 300 -52 302 -177 550 -381 754 -208 207
-469 347 -749 401 -116 22 -306 31 -417 20z"/>
<path d="M5030 7609 c-556 -53 -1025 -417 -1175 -911 -23 -77 -243 -1168 -235
-1168 4 0 32 9 62 19 212 73 465 47 651 -66 49 -30 61 -33 71 -22 7 8 40 46
74 86 129 148 370 338 578 455 473 266 1066 365 1627 272 114 -20 90 -36 203
135 139 209 267 477 341 716 53 170 103 396 103 463 l0 32 -1107 -1 c-610 -1
-1146 -5 -1193 -10z"/>
<path d="M7856 7468 c-20 -183 -97 -489 -181 -713 -52 -140 -190 -418 -278
-560 l-75 -120 102 -53 c218 -116 405 -258 596 -452 l125 -127 59 38 c166 108
412 138 626 75 47 -13 87 -23 89 -20 8 8 -212 1084 -241 1174 -64 202 -173
376 -326 521 -110 105 -211 175 -344 238 -152 73 -144 73 -152 -1z"/>
<path d="M6060 5999 c-443 -43 -845 -204 -1170 -466 -80 -65 -254 -240 -284
-286 -22 -32 -28 -21 99 -171 52 -61 108 -140 131 -186 l42 -80 28 38 c98 130
307 313 461 406 493 295 1124 323 1638 72 234 -115 469 -306 613 -498 l35 -47
22 54 c34 84 66 131 169 255 53 63 96 117 96 121 0 11 -113 134 -185 200 -339
315 -704 494 -1160 570 -136 22 -402 31 -535 18z"/>
<path d="M3864 5290 c-135 -20 -250 -78 -357 -180 -219 -208 -390 -575 -405
-869 -6 -122 6 -188 54 -287 90 -190 341 -324 608 -324 113 0 189 16 281 59
91 42 156 100 242 213 42 57 111 139 151 182 161 172 216 320 191 505 -18 127
-46 185 -149 301 -36 41 -100 120 -142 175 -41 56 -93 116 -114 134 -51 45
-125 78 -204 90 -72 12 -82 12 -156 1z"/>
<path d="M8513 5289 c-73 -12 -153 -50 -203 -95 -23 -21 -72 -79 -109 -129
-37 -49 -97 -124 -134 -165 -114 -128 -157 -234 -157 -387 0 -97 32 -210 81
-288 17 -27 68 -90 111 -139 44 -49 120 -139 168 -200 143 -180 265 -245 476
-254 409 -17 699 224 697 578 -2 212 -109 514 -258 725 -75 107 -218 243 -301
287 -114 60 -259 87 -371 67z"/>
<path d="M6157 4928 c-34 -20 -50 -49 -191 -335 -108 -218 -160 -313 -171
-313 -64 0 -637 -83 -668 -97 -76 -33 -108 -124 -74 -206 8 -19 113 -128 250
-261 176 -170 237 -235 237 -252 0 -13 -21 -146 -46 -296 -54 -322 -57 -365
-28 -404 33 -45 70 -67 122 -72 48 -4 60 1 351 149 l302 154 302 -153 c210
-106 312 -152 335 -152 46 0 95 23 120 55 44 56 44 74 -9 392 -26 164 -49 309
-49 323 0 20 51 74 234 252 139 135 240 242 251 264 35 75 3 174 -67 207 -27
12 -365 62 -632 93 l-59 7 -153 312 c-133 270 -158 316 -187 334 -46 28 -120
28 -170 -1z"/>
<path d="M4575 3788 c-15 -13 -51 -80 -86 -157 -33 -74 -61 -136 -62 -137 -1
-2 -74 -13 -162 -25 -146 -21 -162 -25 -187 -50 -36 -36 -38 -90 -5 -122 12
-12 67 -64 121 -116 l99 -93 -26 -143 c-15 -78 -27 -156 -27 -173 0 -38 48
-82 90 -82 16 0 88 32 168 75 l140 75 63 -36 c121 -68 219 -114 244 -114 14 0
36 7 50 16 44 29 46 57 13 225 l-30 154 121 116 c117 112 121 116 121 158 0
31 -6 48 -25 66 -13 14 -30 25 -37 25 -22 1 -311 39 -313 42 -2 2 -30 64 -64
138 -67 147 -94 180 -146 180 -21 0 -44 -9 -60 -22z m131 -270 c32 -70 64
-130 71 -132 7 -3 76 -13 153 -22 77 -10 140 -21 140 -25 0 -4 -47 -51 -105
-104 -70 -65 -105 -104 -105 -119 0 -11 11 -79 24 -151 14 -71 23 -131 21
-133 -2 -2 -59 26 -127 62 -69 36 -134 66 -145 66 -11 0 -70 -27 -130 -60 -61
-33 -118 -62 -126 -66 -12 -4 -10 16 9 118 36 187 41 171 -81 284 -58 54 -105
101 -105 104 0 3 64 14 141 24 78 10 147 20 154 22 7 3 29 40 48 82 20 42 48
103 62 135 15 32 31 55 35 50 4 -4 34 -65 66 -135z"/>
<path d="M7816 3788 c-14 -13 -51 -81 -82 -153 -32 -71 -60 -133 -64 -137 -3
-5 -75 -17 -160 -28 -164 -22 -197 -35 -214 -82 -5 -14 -6 -36 -3 -50 6 -22
131 -153 211 -220 l29 -25 -26 -155 c-15 -85 -27 -162 -27 -172 0 -10 13 -31
29 -47 45 -45 74 -39 230 45 l138 75 139 -75 c77 -40 149 -74 162 -74 37 0 79
27 90 58 7 21 3 66 -19 184 l-29 156 77 74 c172 163 163 152 163 197 0 31 -6
48 -25 66 -13 14 -30 25 -37 25 -49 2 -302 40 -309 47 -5 5 -36 67 -69 138
-71 154 -88 175 -140 175 -26 0 -47 -7 -64 -22z m129 -267 c33 -72 64 -132 71
-135 7 -3 74 -12 150 -21 77 -9 141 -19 144 -22 3 -2 -44 -50 -103 -106 -82
-78 -108 -108 -107 -127 0 -14 11 -81 24 -150 13 -69 23 -127 21 -128 -2 -2
-58 26 -125 62 -66 36 -131 66 -143 66 -12 0 -76 -29 -141 -65 -66 -35 -122
-62 -125 -60 -2 3 5 58 17 123 34 181 39 165 -83 278 -58 53 -105 100 -105
103 0 4 64 15 142 24 78 10 149 22 157 27 9 4 42 67 75 139 32 72 62 129 66
126 4 -2 33 -63 65 -134z"/>
</g>
</svg>
