<?xml version="1.0" standalone="no"?>
<!DOCTYPE svg PUBLIC "-//W3C//DTD SVG 20010904//EN"
 "http://www.w3.org/TR/2001/REC-SVG-20010904/DTD/svg10.dtd">
<svg version="1.0" xmlns="http://www.w3.org/2000/svg"
 width="1254.000000pt" height="1254.000000pt" viewBox="0 0 1254.000000 1254.000000"
 preserveAspectRatio="xMidYMid meet">

<g transform="translate(0.000000,1254.000000) scale(0.100000,-0.100000)"
fill="#0d1b5e" stroke="none">
<path d="M5850 10835 c-797 -80 -1552 -371 -2196 -846 -277 -204 -630 -542
-836 -799 -510 -639 -841 -1399 -957 -2195 -33 -228 -41 -328 -48 -565 -57
-2134 1359 -4012 3407 -4519 1388 -343 2862 19 3942 968 622 547 1058 1208
1322 2004 258 779 295 1654 105 2482 -250 1087 -888 2038 -1803 2688 -222 158
-575 354 -821 457 -421 175 -892 292 -1330 330 -161 13 -630 11 -785 -5z m701
-696 c903 -70 1726 -458 2369 -1115 619 -633 977 -1386 1086 -2284 13 -107 18
-221 18 -435 1 -311 -11 -449 -60 -715 -246 -1333 -1193 -2460 -2443 -2906
-637 -228 -1326 -279 -1981 -148 -938 187 -1748 715 -2331 1519 -520 717 -778
1641 -709 2543 69 906 449 1757 1070 2396 657 676 1474 1066 2395 1145 146 12
431 13 586 0z"/>
<path d="M4993 8685 c-18 -8 -42 -29 -53 -47 -20 -33 -20 -44 -20 -2318 0
-1794 3 -2290 13 -2309 6 -13 25 -34 40 -45 l28 -21 1252 -3 c837 -2 1264 0
1288 7 19 6 46 22 60 37 l24 26 3 332 3 332 -23 34 c-14 20 -38 40 -58 47 -26
9 -255 12 -892 12 l-858 1 0 168 c-1 619 -2 924 -1 970 l1 52 770 0 c846 0
813 -2 845 60 12 24 15 83 15 353 0 321 0 324 -23 358 -13 19 -38 39 -57 46
-26 9 -233 12 -791 12 l-756 1 -6 73 c-8 103 -9 874 -1 946 l7 61 862 0 862 0
34 23 c58 39 59 42 59 387 0 354 -3 369 -70 402 -33 17 -114 18 -1280 18
-1046 -1 -1250 -3 -1277 -15z"/>
</g>
</svg>
