<?xml version="1.0" standalone="no"?>
<!DOCTYPE svg PUBLIC "-//W3C//DTD SVG 20010904//EN"
 "http://www.w3.org/TR/2001/REC-SVG-20010904/DTD/svg10.dtd">
<svg version="1.0" xmlns="http://www.w3.org/2000/svg"
 width="1254.000000pt" height="1254.000000pt" viewBox="0 0 1254.000000 1254.000000"
 preserveAspectRatio="xMidYMid meet">

<g transform="translate(0.000000,1254.000000) scale(0.100000,-0.100000)"
fill="#0d1b5e" stroke="none">
<path d="M3000 10789 c-347 -58 -643 -301 -766 -629 -70 -185 -65 138 -62
-3795 l3 -3550 23 -80 c102 -363 394 -641 767 -728 90 -21 90 -21 2295 -25
1541 -2 2237 0 2312 8 496 50 865 421 908 914 6 65 9 577 8 1229 0 614 1 1120
4 1122 3 3 320 4 705 3 l700 -3 -263 -268 c-287 -292 -312 -326 -334 -454 -29
-166 63 -341 214 -409 120 -54 274 -39 388 36 52 34 1176 1168 1214 1224 60
88 87 221 64 317 -31 132 -23 123 -653 759 -324 327 -610 610 -635 628 -160
113 -398 75 -520 -83 -90 -117 -101 -307 -26 -445 17 -31 124 -149 291 -320
l265 -270 -709 0 -708 0 0 1088 c-1 1003 -2 1093 -18 1171 -25 116 -67 226
-123 323 -45 76 -125 160 -1019 1056 -533 535 -997 994 -1030 1019 -87 67
-229 131 -338 154 -88 18 -154 19 -1497 18 -788 -1 -1429 -5 -1460 -10z m3140
-982 c179 -178 641 -638 1028 -1023 l703 -699 -3 -65 c-3 -57 -6 -66 -28 -77
-20 -10 -220 -12 -970 -10 -906 2 -947 3 -995 21 -70 27 -146 106 -173 179
-22 58 -22 59 -22 1015 0 732 3 961 12 970 7 7 37 12 67 12 l55 0 326 -323z
m1132 -3848 c104 -22 175 -76 226 -172 25 -48 27 -61 27 -167 0 -106 -2 -119
-27 -167 -36 -68 -90 -120 -158 -152 l-55 -26 -915 0 c-859 0 -918 1 -967 18
-66 23 -146 94 -181 161 -25 47 -27 60 -27 166 0 105 2 119 27 165 26 51 94
121 139 146 66 36 109 37 991 38 606 1 883 -2 920 -10z"/>
</g>
</svg>
