<?xml version="1.0" standalone="no"?>
<!DOCTYPE svg PUBLIC "-//W3C//DTD SVG 20010904//EN"
 "http://www.w3.org/TR/2001/REC-SVG-20010904/DTD/svg10.dtd">
<svg version="1.0" xmlns="http://www.w3.org/2000/svg"
 width="1373.000000pt" height="1145.000000pt" viewBox="0 0 1373.000000 1145.000000"
 preserveAspectRatio="xMidYMid meet">

<g transform="translate(0.000000,1145.000000) scale(0.100000,-0.100000)"
fill="#0d1b5e" stroke="none">
<path d="M3195 9429 c-204 -7 -258 -16 -391 -69 -322 -128 -560 -405 -656
-762 l-23 -83 -3 -2690 c-2 -1940 0 -2711 8 -2765 14 -96 53 -215 100 -310
145 -290 456 -519 774 -570 40 -6 1398 -10 3841 -10 3293 -1 3790 1 3855 14
425 83 765 425 845 847 14 75 15 368 12 2799 l-2 2715 -22 76 c-80 280 -233
489 -475 649 -168 110 -297 149 -538 159 -208 10 -7049 9 -7325 0z m1983
-1938 c428 -124 720 -558 671 -996 -43 -387 -285 -693 -642 -809 -457 -149
-964 123 -1117 600 -173 539 153 1109 701 1224 77 16 304 5 387 -19z m4852
-277 c101 -30 190 -108 236 -207 35 -79 44 -201 19 -278 -37 -116 -127 -210
-240 -250 -54 -19 -87 -19 -1188 -17 l-1132 3 -62 29 c-74 34 -162 121 -195
193 -19 40 -22 66 -23 158 0 92 4 118 22 157 43 95 153 188 252 214 35 10 309
13 1152 13 981 1 1111 -1 1159 -15z m59 -1647 c72 -38 141 -109 176 -182 27
-54 29 -70 30 -165 0 -99 -2 -109 -33 -172 -54 -110 -154 -186 -274 -208 -36
-7 -434 -10 -1154 -8 l-1099 3 -58 23 c-81 33 -166 114 -203 194 -26 57 -29
73 -29 168 0 88 4 113 23 154 45 99 125 173 225 207 49 18 116 18 1197 16
l1145 -2 54 -28z m-4968 -338 c261 -26 481 -101 684 -233 332 -216 526 -543
529 -891 1 -90 -1 -103 -23 -134 -13 -18 -42 -42 -65 -52 -39 -18 -94 -19
-1311 -19 l-1271 0 -44 22 c-34 18 -51 35 -69 71 -24 48 -24 51 -12 157 29
273 130 481 325 675 302 301 777 453 1257 404z"/>
</g>
</svg>
