<?xml version="1.0" standalone="no"?>
<!DOCTYPE svg PUBLIC "-//W3C//DTD SVG 20010904//EN"
 "http://www.w3.org/TR/2001/REC-SVG-20010904/DTD/svg10.dtd">
<svg version="1.0" xmlns="http://www.w3.org/2000/svg"
 width="1122.000000pt" height="1402.000000pt" viewBox="0 0 1122.000000 1402.000000"
 preserveAspectRatio="xMidYMid meet">

<g transform="translate(0.000000,1402.000000) scale(0.100000,-0.100000)"
fill="#0d1b5e" stroke="none">
<path d="M6124 11671 c-23 -10 -54 -36 -70 -57 l-29 -37 -5 -276 -5 -276 -72
-7 c-121 -12 -188 -54 -229 -143 l-24 -50 0 -993 0 -994 29 -29 29 -29 817 0
817 0 29 29 29 29 0 988 c0 720 -3 997 -12 1025 -15 51 -70 114 -120 140 -25
13 -69 23 -114 26 l-73 6 -3 266 c-3 286 -5 297 -60 348 -55 52 -68 53 -495
53 -367 0 -401 -2 -439 -19z"/>
<path d="M5145 10314 c-643 -224 -1228 -683 -1634 -1284 -332 -491 -527 -1012
-596 -1595 -21 -171 -24 -540 -6 -710 75 -727 356 -1403 807 -1935 39 -47 83
-96 98 -109 14 -14 26 -28 26 -32 0 -4 -114 -9 -252 -11 -248 -3 -254 -3 -308
-29 -80 -37 -125 -81 -162 -157 l-33 -67 0 -495 0 -495 31 -66 c53 -112 133
-171 256 -190 40 -6 989 -9 2583 -7 l2520 3 57 23 c41 16 72 40 111 82 93 100
91 87 95 610 4 484 0 535 -43 620 -31 61 -78 103 -150 137 l-60 28 -797 3
-798 2 0 235 0 235 308 0 c177 0 334 5 368 11 100 18 166 68 217 163 18 35 22
57 22 146 0 94 -3 110 -27 156 -33 63 -91 116 -154 140 -47 18 -93 19 -1074
19 l-1025 0 -53 -24 c-65 -29 -134 -104 -156 -168 -21 -60 -21 -186 0 -246 21
-63 83 -130 152 -164 l57 -28 348 -3 347 -3 0 -235 0 -234 -452 0 -453 0 -110
58 c-250 132 -432 262 -623 446 -154 149 -258 273 -367 436 -263 395 -408 820
-445 1311 -25 324 34 725 154 1042 147 387 340 692 611 963 202 203 407 351
675 487 85 43 164 87 175 98 19 19 20 35 23 420 l3 400 -30 29 c-41 41 -78 39
-236 -16z"/>
<path d="M5585 8539 c-43 -12 -102 -64 -128 -112 -21 -41 -22 -51 -22 -352 0
-300 1 -311 22 -351 43 -81 136 -134 235 -134 22 0 442 81 935 180 976 196
954 190 1013 271 34 47 50 114 50 209 0 146 -39 229 -130 275 l-49 25 -948 -1
c-521 0 -961 -5 -978 -10z"/>
</g>
</svg>
