<?xml version="1.0" standalone="no"?>
<!DOCTYPE svg PUBLIC "-//W3C//DTD SVG 20010904//EN"
 "http://www.w3.org/TR/2001/REC-SVG-20010904/DTD/svg10.dtd">
<svg version="1.0" xmlns="http://www.w3.org/2000/svg"
 width="1254.000000pt" height="1254.000000pt" viewBox="0 0 1254.000000 1254.000000"
 preserveAspectRatio="xMidYMid meet">

<g transform="translate(0.000000,1254.000000) scale(0.100000,-0.100000)"
fill="#0d1b5e" stroke="none">
<path d="M5200 11201 c-162 -44 -297 -152 -362 -291 -46 -96 -55 -142 -64
-322 l-7 -147 -941 -3 -941 -3 -78 -28 c-101 -35 -168 -79 -237 -153 -265
-287 -150 -742 221 -876 l64 -23 3429 -3 3430 -2 75 20 c342 94 498 483 320
796 -41 73 -154 176 -234 214 -123 59 -132 59 -1122 60 l-901 0 -6 48 c-3 26
-8 92 -11 147 -8 131 -20 184 -63 275 -46 99 -149 203 -243 248 -134 64 -91
62 -1229 61 -959 0 -1040 -1 -1100 -18z"/>
<path d="M2860 8486 c0 -39 80 -1081 175 -2266 19 -239 46 -581 60 -760 14
-179 39 -494 55 -700 16 -206 43 -550 60 -765 16 -214 48 -613 70 -885 22
-272 45 -556 50 -630 12 -146 42 -276 86 -363 96 -191 266 -337 469 -403 73
-24 101 -27 315 -35 129 -4 1144 -8 2255 -8 1991 -1 2021 -1 2104 19 233 56
430 212 539 427 65 126 82 270 197 1603 14 162 50 570 80 905 30 336 71 792
90 1015 19 223 60 682 90 1020 30 338 60 667 65 730 46 532 91 1042 95 1078
l6 42 -3430 0 -3431 0 0 -24z"/>
</g>
</svg>
